<svg width="1024" height="1024" xmlns="http://www.w3.org/2000/svg" fill-rule="evenodd">
 <g>
  <title>Layer 1</title>
  <g stroke="null" id="svg_1">
   <path stroke="null" d="m513.7119,228.45572c29.64684,0 84.33652,12.543 84.33652,12.543c0.00288,0.00288 -52.68407,50.7619 -52.68407,50.7619c0,0 7.73183,-16.26936 0,-11.50998c-37.76425,23.2329 -83.76102,87.09316 -83.76102,87.09316l-8.31884,-18.03327c-14.95147,16.9168 -26.64849,36.4032 -34.52995,57.54991c-8.22791,22.07327 -11.50998,69.0599 -11.50998,69.0599c0,0 -14.52128,-32.85812 -17.26497,-23.01997c-9.04426,32.42938 -0.82066,91.63673 11.50998,135.2423c2.91548,10.31007 -43.68959,-58.70667 -40.28494,-48.91743c27.60123,79.36421 73.71856,138.30395 74.81489,143.87479c-20.69783,-139.27942 63.30491,-247.46463 63.30491,-247.46463c22.58546,-27.06572 42.75671,-55.87809 60.42741,-86.32487c12.93434,-22.28908 24.45008,-45.32056 34.52995,-69.0599c-9.69428,28.81236 -22.14521,56.66652 -37.40744,83.44738c-9.98779,17.52395 -20.62013,32.0294 -31.65245,48.91743c-29.12889,44.5868 -51.31726,90.55767 -60.42741,120.85482c-12.4797,41.505 -19.0001,91.1418 -14.38748,152.50727c2.31063,30.75755 7.69155,61.14966 16.09096,91.02094c-68.82106,-14.11124 -130.84462,-51.43524 -173.31099,-107.35936c-29.92509,-39.41018 -53.23885,-92.8165 -58.59214,-164.94381c0,-152.56482 124.96503,-276.23959 279.11708,-276.23959z" fill=" #3771c2" id="svg_2"/>
   <path stroke="null" d="m623.05674,170.9058c-4.91764,1.86749 23.68467,67.0773 14.38748,140.99729c-3.5163,27.96063 -11.3546,54.82493 -23.01997,80.56988l8.63249,0c0,0 -48.77067,82.14962 -92.07986,115.09983l28.77496,-8.63249c0,0 -20.57697,56.54855 -74.81489,138.11979c0,0 60.13391,-68.2283 60.42741,-63.30491c-18.78141,26.21111 -35.32414,53.25094 -48.91743,80.56988c-11.44668,23.00558 -18.01888,41.09639 -20.14247,63.30491c-2.90627,30.38923 3.36091,60.74969 17.26497,89.20237c-6.2269,13.60192 -6.15784,28.52174 -8.63249,43.16244c-2.49479,14.76155 15.56437,-25.86581 31.65245,-51.79492c-3.8357,-5.75499 -7.67428,-11.50998 -11.50998,-17.26497c126.82275,1.9567 238.69978,-80.62455 273.36209,-198.5472c32.34881,-110.05558 -8.26992,-231.6643 -103.58985,-302.13705c-6.94052,-19.61589 -14.54862,-38.63901 -23.01997,-57.54991c-9.36049,-20.89637 -25.1637,-53.16749 -28.77496,-51.79492z" fill="#50ade6" id="svg_3"/>
  </g>
 </g>

</svg>