<svg width="271" height="271" xmlns="http://www.w3.org/2000/svg" fill-rule="evenodd">

 <g>
  <title>Layer 1</title>
  <g id="svg_1">
   <path id="svg_2" fill=" #3771c2" d="m136.09493,36.96145c10.303,0 29.309,4.359 29.309,4.359c0.001,0.001 -18.309,17.641 -18.309,17.641c0,0 2.687,-5.654 0,-4c-13.124,8.074 -29.109,30.267 -29.109,30.267l-2.891,-6.267c-5.196,5.879 -9.261,12.651 -12,20c-2.8594,7.671 -4,24 -4,24c0,0 -5.0465,-11.419 -6,-8c-3.1431,11.27 -0.2852,31.846 4,47c1.0132,3.583 -15.1832,-20.402 -14,-17c9.5921,27.581 25.619,48.064 26,50c-7.193,-48.403 22,-86 22,-86c7.849,-9.406 14.859,-19.419 21,-30c4.495,-7.746 8.497,-15.75 12,-24c-3.369,10.013 -7.696,19.693 -13,29c-3.471,6.09 -7.166,11.131 -11,17c-10.123,15.495 -17.834,31.471 -21,42c-4.337,14.424 -6.603,31.674 -5,53c0.803,10.689 2.673,21.251 5.592,31.632c-23.917,-4.904 -45.4717,-17.875 -60.2298,-37.31c-10.3997,-13.696 -18.5018,-32.256 -20.3622,-57.322c0,-53.02 43.4284,-96 97,-96z"/>
   <path id="svg_3" fill="#50ade6" d="m174.09493,16.96145c-1.709,0.649 8.231,23.311 5,49c-1.222,9.717 -3.946,19.053 -8,28l3,0c0,0 -16.949,28.549 -32,40l10,-3c0,0 -7.151,19.652 -26,48c0,0 20.898,-23.711 21,-22c-6.527,9.109 -12.276,18.506 -17,28c-3.978,7.995 -6.262,14.282 -7,22c-1.01,10.561 1.168,21.112 6,31c-2.164,4.727 -2.14,9.912 -3,15c-0.867,5.13 5.409,-8.989 11,-18c-1.333,-2 -2.667,-4 -4,-6c44.074,0.68 82.954,-28.019 95,-69c11.242,-38.247 -2.874,-80.509 -36,-105c-2.412,-6.817 -5.056,-13.428 -8,-20c-3.253,-7.262 -8.745,-18.477 -10,-18z"/>
  </g>
 </g>
</svg>